#tb 0: 1/12
0,          0,          0,        1,   302760, 0x78939253
0,          1,          1,        1,   302760, 0x534f5253
0,          2,          2,        1,   302760, 0xe991aa82
0,          3,          3,        1,   302760, 0xc34b20bd
0,          4,          4,        1,   302760, 0x461d29a1
0,          5,          5,        1,   302760, 0x45abca02
0,          6,          6,        1,   302760, 0xb05448b9
